PathFileType	4	(X/Y/Z)	 s09c0402.trc
DataRate	CameraRate	NumFrames	NumMarkers	Units	OrigDataRate	OrigDataStartFrame	OrigNumFrames
200	200	6	50	mm	200	1501	2000
Frame#	Time	racr			lacr			c7			jug			rlel			rdr			llel			ldr			s2			lic			ric			lasi			rasi			rpsi			lpsi			rgt			lgt			rth1			rth2			rth3			rth4			rlfc			rmfc			rsh1			rsh2			rsh3			rsh4			rlmal			rmmal			rcal			rtoe			rmt5			lth1			lth2			lth4			lth3			llfc			lmfc			llmal			lmmal			lcal			lmt5			lsh1			lsh2			lsh3			lsh4			ltoe			SBIKE			LBIKE			RBIKE			
		X1	Y1	Z1	X2	Y2	Z2	X3	Y3	Z3	X4	Y4	Z4	X5	Y5	Z5	X6	Y6	Z6	X7	Y7	Z7	X8	Y8	Z8	X9	Y9	Z9	X10	Y10	Z10	X11	Y11	Z11	X12	Y12	Z12	X13	Y13	Z13	X14	Y14	Z14	X15	Y15	Z15	X16	Y16	Z16	X17	Y17	Z17	X18	Y18	Z18	X19	Y19	Z19	X20	Y20	Z20	X21	Y21	Z21	X22	Y22	Z22	X23	Y23	Z23	X24	Y24	Z24	X25	Y25	Z25	X26	Y26	Z26	X27	Y27	Z27	X28	Y28	Z28	X29	Y29	Z29	X30	Y30	Z30	X31	Y31	Z31	X32	Y32	Z32	X33	Y33	Z33	X34	Y34	Z34	X35	Y35	Z35	X36	Y36	Z36	X37	Y37	Z37	X38	Y38	Z38	X39	Y39	Z39	X40	Y40	Z40	X41	Y41	Z41	X42	Y42	Z42	X43	Y43	Z43	X44	Y44	Z44	X45	Y45	Z45	X46	Y46	Z46	X47	Y47	Z47	X48	Y48	Z48	X49	Y49	Z49	X50	Y50	Z50	
1501	7.5050	693.750814	1252.455899	-52.308151	712.825150	1249.585982	-431.119803	718.927587	1338.524544	-241.222102	707.018269	1200.195528	-243.544302	524.306990	1068.121801	31.241632	684.424086	908.084401	-43.692208	536.481590	1078.600644	-568.020991	675.725963	907.483404	-464.493216	234.201540	1166.611902	-271.747996	374.194078	1119.611349	-406.351493	370.439722	1162.610910	-114.627258	399.824080	1060.685847	-373.561562	399.893995	1099.052765	-128.720711	264.949264	1200.952458	-213.989582	274.609806	1187.708940	-324.223365	334.731238	1040.019433	-59.753906	298.635592	984.762330	-428.965215	441.090909	947.022938	-69.229049	519.400495	909.244255	-84.350923	563.846209	835.266410	-85.660813	534.238231	927.531288	-111.424116	600.371609	737.273328	-119.934650	573.124703	723.565620	-214.301214	503.667541	709.745229	-86.974491	433.333057	654.309617	-95.444701	347.126675	641.269304	-89.344888	445.165136	630.191292	-124.553930	252.327340	596.837713	-84.196991	260.245338	602.342860	-161.199318	173.765858	635.230422	-121.878816	332.622863	423.042779	-130.178992	270.505776	477.111071	-64.340611	334.703078	853.754861	-424.022551	378.465307	781.686417	-413.945977	413.965336	790.809441	-402.848171	379.513234	691.400678	-404.029561	392.004678	599.962155	-386.822403	391.799223	583.751342	-291.143892	260.024649	257.332276	-406.762376	281.971156	261.150759	-338.563628	189.879482	235.855358	-371.656095	343.734366	153.920468	-431.513146	348.017717	508.892598	-413.769258	343.103924	422.794489	-408.346149	294.696525	348.415288	-409.252659	368.657069	415.881831	-377.863998	436.745642	151.059367	-362.124363	-64.864780	852.768969	-239.664722	20.668248	84.538162	-441.896121	21.095206	84.018395	-43.872442	
1502	7.5100	693.559410	1251.412125	-48.942011	712.774774	1250.815375	-427.950079	718.178743	1338.535401	-237.566805	710.011452	1201.617784	-245.035088	523.575214	1066.696659	33.266608	684.213604	908.108359	-43.676335	537.804685	1079.557853	-566.312639	676.744965	907.051900	-463.792414	234.589155	1165.584371	-275.592191	377.894901	1117.649156	-406.502022	368.246989	1163.321110	-115.569576	402.006101	1059.090716	-372.575592	398.968356	1100.416589	-127.970125	264.145834	1200.320242	-217.489332	275.922150	1186.490885	-327.303747	333.176332	1041.713021	-61.043391	301.179476	983.139835	-430.133530	442.232014	951.117250	-69.924125	521.337745	914.859504	-84.576802	567.535285	842.298943	-84.235171	537.368989	933.735096	-111.549045	606.813444	744.716805	-118.746541	579.749004	731.469692	-215.674329	510.581428	715.882966	-86.913675	440.761029	659.961535	-95.364629	354.707189	645.887077	-89.369517	452.830392	635.967018	-124.373425	259.798303	600.397734	-84.516293	267.712458	605.956132	-161.490904	180.467682	637.115258	-121.649515	343.811315	428.459121	-130.254104	280.491688	481.107535	-64.530068	333.883611	852.449033	-424.844135	375.829996	779.551964	-414.480764	411.221474	787.553757	-402.238248	374.379142	688.850638	-404.603983	384.512916	597.546466	-387.221451	383.500878	581.547346	-291.256631	251.975352	255.575583	-407.330538	273.938448	259.146979	-339.546320	181.608163	235.447095	-372.524167	334.267753	150.619782	-431.368445	340.236985	506.973714	-414.276744	335.213131	420.838628	-408.890329	286.615875	346.599572	-409.829790	360.745891	413.909191	-378.554598	426.828333	146.203047	-361.458797	-64.872536	852.767546	-239.631683	20.659670	84.534274	-441.885571	21.084961	84.016738	-43.870516	
1503	7.5150	693.395288	1250.601513	-45.335708	712.661908	1252.016870	-424.861021	717.538537	1338.423705	-233.900844	710.328345	1202.645042	-243.552766	522.883396	1065.272528	35.214989	683.952936	908.350182	-43.414432	538.972451	1080.468025	-564.546304	676.793646	906.487409	-462.955717	234.990286	1164.724448	-279.383429	381.543045	1115.825024	-406.486119	365.990580	1164.147188	-116.489216	404.194641	1057.663310	-371.339754	397.978489	1101.708061	-126.766327	263.478710	1199.768794	-221.021596	277.415269	1185.404020	-330.129377	331.661064	1043.408778	-62.216983	303.880939	981.799797	-431.243307	443.642007	955.169610	-70.820807	523.081202	920.363441	-84.757128	570.690825	847.805387	-85.779193	538.988784	939.606981	-111.448435	612.980354	751.574195	-117.869695	585.994311	738.716189	-216.279760	517.359959	721.958110	-86.982038	447.789826	665.087075	-95.175258	361.882160	649.970746	-89.430721	460.407444	640.794633	-123.985503	267.126350	603.160429	-84.858255	274.862394	608.875337	-161.740971	187.082713	638.142790	-121.569134	355.142601	433.533158	-130.272086	290.579906	484.621668	-64.528459	333.221514	851.631801	-425.688975	373.252367	777.498540	-414.786844	408.379285	785.171718	-402.000975	369.627211	687.085850	-405.399395	377.510426	595.839847	-387.819586	375.793653	579.746134	-291.632545	243.920595	254.473414	-407.927062	265.874297	257.791483	-340.547231	173.322639	235.764709	-373.476600	324.731825	147.998490	-431.252880	332.863790	505.631297	-414.973004	327.477814	419.561652	-409.653282	278.634617	345.415849	-410.496223	353.145409	412.636895	-379.673210	416.721694	142.004928	-360.749135	-64.904466	852.776187	-239.588055	20.675343	84.567888	-441.910871	21.087637	84.010940	-43.865152	
1504	7.5200	693.342229	1249.554059	-41.986031	712.522821	1253.136481	-421.836073	717.472944	1338.219159	-230.031162	710.332111	1202.667109	-240.480919	522.275770	1063.866406	37.132542	683.719781	908.403880	-43.135758	539.885757	1081.622261	-562.932743	677.421575	906.278730	-463.074693	235.315084	1163.776778	-283.013246	385.091889	1114.283042	-406.341520	363.529259	1165.270861	-117.086066	406.259773	1056.379784	-369.842891	396.867440	1102.984374	-125.664671	262.975821	1199.365336	-224.548386	278.679741	1184.562344	-333.330757	330.136188	1045.090334	-63.170663	306.730623	980.796031	-432.285713	444.513701	959.397044	-71.250361	524.602439	925.841510	-84.831883	574.411822	853.322917	-87.156157	540.576258	945.857128	-111.527936	618.367099	759.069926	-117.036538	591.847185	745.137752	-216.987244	523.069320	727.683780	-86.511383	454.376601	669.741539	-94.907421	368.398642	653.408090	-89.751058	467.372418	645.682733	-123.730932	274.242050	605.142554	-85.093187	281.872844	610.991099	-161.857632	193.216501	638.274147	-121.568149	366.580303	438.232668	-130.452242	300.691316	487.482252	-64.664359	332.809870	851.582076	-426.852658	370.947636	776.347982	-415.340863	406.010765	783.154197	-401.633628	365.500455	685.986288	-407.036747	371.013256	594.744180	-388.769299	368.761798	578.406749	-292.266409	235.933302	254.090892	-408.585197	257.929096	257.133343	-341.624176	165.062558	236.763353	-374.300356	314.995961	146.058384	-431.174511	325.984887	504.857706	-415.777951	320.132484	418.796515	-410.457019	270.884272	344.979380	-411.247341	345.624019	411.593064	-380.319875	406.462767	138.359269	-360.204914	-64.930568	852.784852	-239.563552	20.651592	84.569946	-441.886408	21.090264	84.021574	-43.863705	
1505	7.5250	693.287328	1248.547390	-38.858197	712.419703	1254.147015	-418.852263	717.051954	1337.919411	-226.361604	710.163195	1202.477015	-237.029237	521.743698	1062.500305	39.064264	683.467412	908.469466	-42.837264	540.601036	1082.820316	-561.375959	677.587452	905.757158	-462.786635	235.757845	1163.225203	-286.397181	388.453995	1112.993618	-406.110896	361.474074	1166.357010	-117.894000	408.190023	1055.562183	-367.426611	395.592141	1104.195926	-124.507658	262.774384	1199.255975	-227.286405	279.833627	1183.833314	-336.214696	328.633601	1047.022561	-63.880727	309.682942	980.221164	-433.336355	445.056317	963.048883	-71.886932	525.612913	930.918020	-84.669633	576.082492	859.930528	-85.649222	541.624782	950.987409	-111.121764	623.577750	765.723033	-116.336004	597.338590	752.207651	-216.930133	527.559351	732.824913	-85.754242	460.443755	673.789982	-94.625919	374.450143	655.906752	-90.130217	473.940833	650.079098	-123.402039	281.241094	606.312548	-85.223270	288.632811	612.502569	-161.907933	199.195124	637.518632	-121.490809	378.032118	442.345365	-130.610012	310.820103	489.639793	-64.775090	332.513946	851.794596	-427.833543	368.956863	775.717016	-416.084229	403.768132	781.832666	-401.632813	361.510968	685.542486	-408.224104	365.096848	594.147478	-389.897453	362.553941	577.545470	-292.983465	227.940923	254.343100	-409.137066	250.294543	257.252208	-342.705250	156.877097	238.518763	-374.556235	304.925349	144.698677	-431.097650	319.615848	504.536838	-416.678238	313.179917	418.485664	-411.363636	263.406432	345.026696	-412.040699	338.631042	411.209746	-381.237799	396.154799	135.326076	-360.034351	-64.943397	852.801921	-239.547749	20.655540	84.569080	-441.891438	21.088025	84.000491	-43.863603	
1506	7.5300	693.381405	1247.707622	-35.676536	712.292705	1255.001620	-415.937079	716.712385	1337.628016	-223.037111	710.428358	1202.506855	-234.169321	521.240125	1061.194722	40.913715	683.296065	908.315230	-42.524028	541.066802	1084.013765	-559.904617	677.907547	905.802089	-463.687094	236.227399	1163.199031	-289.494881	391.491840	1112.284113	-405.885227	359.003392	1167.576679	-118.419987	410.110334	1054.921357	-366.056247	393.913641	1105.229140	-123.325023	262.110530	1199.655389	-230.206806	281.294638	1184.008598	-339.375862	327.184867	1048.976392	-64.303025	312.692278	980.126230	-434.495080	445.424636	966.592037	-72.172285	527.532618	935.323899	-84.618991	578.767642	865.189964	-86.391371	542.576646	956.214022	-110.715596	627.549275	772.974189	-115.015547	601.970089	757.939648	-216.834480	531.927757	737.356032	-85.147438	465.727288	677.477152	-94.053194	381.062579	658.034708	-89.004578	479.867134	653.804925	-123.057888	288.007381	606.549699	-85.243398	295.924868	613.061220	-161.052518	204.938029	635.643062	-121.351770	389.423703	445.937860	-130.708655	320.970114	491.106297	-64.738361	332.310034	852.435923	-428.817369	367.292070	775.612622	-416.997432	401.759872	781.012902	-402.078512	358.190212	685.472692	-409.946462	359.821334	594.001958	-391.165242	357.058148	577.081037	-293.861646	219.850579	255.321699	-409.343890	242.696314	258.008541	-343.485555	148.731618	241.075696	-374.417266	294.779464	144.105013	-430.967464	313.774153	504.649579	-417.585072	306.612055	418.678419	-412.143010	256.265689	345.610996	-412.582650	332.088810	411.081897	-382.000817	385.796747	132.924255	-359.942815	-64.959038	852.795663	-239.510093	20.668337	84.611253	-441.917799	21.090400	84.027782	-43.856367	
